<?xml version="1.0" encoding="utf-8"?><svg viewBox="0 0 16 16" xmlns="http://www.w3.org/2000/svg" xmlns:xlink="http://www.w3.org/1999/xlink"><style>:root>svg{display:none}:root>svg:target{display:block}</style><svg viewBox="0 0 10 8" id="done" xmlns="http://www.w3.org/2000/svg"><path fill-rule="evenodd" clip-rule="evenodd" d="M8.92.209a.538.538 0 0 1 .042.736L3.64 7.205a.49.49 0 0 1-.373.176.49.49 0 0 1-.373-.176L.232 4.075a.538.538 0 0 1 .042-.736.484.484 0 0 1 .704.043l2.289 2.692L8.217.252A.484.484 0 0 1 8.92.209Z"/></svg><svg viewBox="0 0 16 16" id="star" xmlns="http://www.w3.org/2000/svg"><path d="m8.163.837 1.832 5.64h5.93l-4.797 3.486 1.832 5.64-4.797-3.485-4.798 3.486 1.832-5.64L.4 6.477h5.93L8.163.838Z"/></svg></svg>