<svg width="19" height="21" viewBox="0 0 19 21" fill="none" xmlns="http://www.w3.org/2000/svg">
<path fill-rule="evenodd" clip-rule="evenodd" d="M9.25391 2.27222C7.04477 2.27222 5.25391 4.06308 5.25391 6.27222C5.25391 8.48136 7.04477 10.2722 9.25391 10.2722C11.463 10.2722 13.2539 8.48136 13.2539 6.27222C13.2539 4.06308 11.463 2.27222 9.25391 2.27222ZM3.25391 6.27222C3.25391 2.95851 5.9402 0.272217 9.25391 0.272217C12.5676 0.272217 15.2539 2.95851 15.2539 6.27222C15.2539 9.58593 12.5676 12.2722 9.25391 12.2722C5.9402 12.2722 3.25391 9.58593 3.25391 6.27222ZM5.25391 16.2722C3.59705 16.2722 2.25391 17.6154 2.25391 19.2722C2.25391 19.8245 1.80619 20.2722 1.25391 20.2722C0.701621 20.2722 0.253906 19.8245 0.253906 19.2722C0.253906 16.5108 2.49248 14.2722 5.25391 14.2722H13.2539C16.0153 14.2722 18.2539 16.5108 18.2539 19.2722C18.2539 19.8245 17.8062 20.2722 17.2539 20.2722C16.7016 20.2722 16.2539 19.8245 16.2539 19.2722C16.2539 17.6154 14.9108 16.2722 13.2539 16.2722H5.25391Z" fill="#999999"/>
</svg>
