<svg width="25" height="25" viewBox="0 0 25 25" fill="none" xmlns="http://www.w3.org/2000/svg">
<path fill-rule="evenodd" clip-rule="evenodd" d="M12.2539 4.27222C10.0448 4.27222 8.25391 6.06308 8.25391 8.27222C8.25391 10.4814 10.0448 12.2722 12.2539 12.2722C14.463 12.2722 16.2539 10.4814 16.2539 8.27222C16.2539 6.06308 14.463 4.27222 12.2539 4.27222ZM6.25391 8.27222C6.25391 4.95851 8.9402 2.27222 12.2539 2.27222C15.5676 2.27222 18.2539 4.95851 18.2539 8.27222C18.2539 11.5859 15.5676 14.2722 12.2539 14.2722C8.9402 14.2722 6.25391 11.5859 6.25391 8.27222ZM8.25391 18.2722C6.59705 18.2722 5.25391 19.6154 5.25391 21.2722C5.25391 21.8245 4.80619 22.2722 4.25391 22.2722C3.70162 22.2722 3.25391 21.8245 3.25391 21.2722C3.25391 18.5108 5.49248 16.2722 8.25391 16.2722H16.2539C19.0153 16.2722 21.2539 18.5108 21.2539 21.2722C21.2539 21.8245 20.8062 22.2722 20.2539 22.2722C19.7016 22.2722 19.2539 21.8245 19.2539 21.2722C19.2539 19.6154 17.9108 18.2722 16.2539 18.2722H8.25391Z" fill="#999999"/>
</svg>
