<svg width="30" height="30" viewBox="0 0 30 30" fill="none" xmlns="http://www.w3.org/2000/svg">
<path d="M14.7539 29.7722C22.762 29.7722 29.2539 23.2803 29.2539 15.2722C29.2539 7.26409 22.762 0.772217 14.7539 0.772217C6.74578 0.772217 0.253906 7.26409 0.253906 15.2722C0.253906 23.2803 6.74578 29.7722 14.7539 29.7722Z" fill="#25D366"/>
<path fill-rule="evenodd" clip-rule="evenodd" d="M15.2317 23.3393H15.2281C13.7851 23.3388 12.3672 22.9768 11.1078 22.2899L6.53711 23.4889L7.76031 19.021C7.00578 17.7133 6.60875 16.2301 6.6094 14.7105C6.61129 9.95656 10.4792 6.08887 15.2316 6.08887C17.5382 6.08986 19.703 6.98779 21.3309 8.61755C22.9587 10.2472 23.8547 12.4135 23.8538 14.7173C23.8519 19.4701 19.9855 23.3374 15.2317 23.3393ZM11.3196 20.729L11.5813 20.8843C12.6816 21.5372 13.9429 21.8827 15.2288 21.8832H15.2317C19.1816 21.8832 22.3964 18.6683 22.398 14.7168C22.3988 12.8019 21.6541 11.0014 20.301 9.6468C18.948 8.2922 17.1487 7.54584 15.2345 7.54517C11.2816 7.54517 8.06672 10.7597 8.06515 14.711C8.0646 16.0651 8.44348 17.3838 9.16085 18.5248L9.33124 18.796L8.60728 21.4405L11.3196 20.729ZM19.2804 16.5736C19.4307 16.6462 19.5322 16.6953 19.5755 16.7676C19.6293 16.8574 19.6293 17.2888 19.4499 17.7921C19.2703 18.2953 18.4096 18.7546 17.9957 18.8164C17.6245 18.8719 17.1548 18.8951 16.6387 18.7311C16.3258 18.6318 15.9246 18.4992 15.4106 18.2773C13.3909 17.4052 12.026 15.4477 11.768 15.0777C11.7499 15.0518 11.7373 15.0336 11.7303 15.0242L11.7285 15.0219C11.6145 14.8698 10.8506 13.8505 10.8506 12.7956C10.8506 11.8032 11.338 11.2831 11.5624 11.0436C11.5778 11.0272 11.5919 11.0122 11.6046 10.9983C11.8021 10.7826 12.0355 10.7287 12.1791 10.7287C12.3227 10.7287 12.4665 10.73 12.592 10.7363C12.6075 10.7371 12.6236 10.737 12.6402 10.7369C12.7658 10.7362 12.9223 10.7353 13.0767 11.1062C13.1361 11.2489 13.223 11.4605 13.3147 11.6837C13.5001 12.135 13.7049 12.6337 13.741 12.7058C13.7948 12.8137 13.8307 12.9394 13.7589 13.0833C13.7481 13.1048 13.7382 13.1252 13.7286 13.1446C13.6747 13.2548 13.635 13.3358 13.5435 13.4426C13.5075 13.4847 13.4703 13.53 13.4331 13.5753C13.359 13.6656 13.2849 13.7558 13.2203 13.8201C13.1125 13.9275 13.0002 14.0441 13.1259 14.2598C13.2515 14.4755 13.6839 15.1809 14.3244 15.7522C15.0128 16.3663 15.6112 16.6258 15.9145 16.7574C15.9737 16.7831 16.0217 16.8039 16.0569 16.8215C16.2722 16.9294 16.3979 16.9113 16.5236 16.7676C16.6493 16.6238 17.0622 16.1385 17.2058 15.9228C17.3494 15.7072 17.493 15.7432 17.6905 15.815C17.888 15.887 18.9472 16.4081 19.1626 16.5159C19.2047 16.537 19.244 16.556 19.2804 16.5736Z" fill="#FDFDFD"/>
</svg>
